<svg width="20" height="20" viewBox="0 0 20 20" fill="none" xmlns="http://www.w3.org/2000/svg">
<path fill-rule="evenodd" clip-rule="evenodd" d="M9.57896 2.4365C9.36909 2.67972 9.1677 2.90563 9.13139 2.93848C9.07072 2.99335 9.02318 2.96994 8.54215 2.64798C8.25438 2.45538 7.99428 2.28833 7.96419 2.27678C7.92455 2.26159 7.82903 2.41846 7.61828 2.84473C7.45818 3.16865 7.30986 3.43976 7.28872 3.44725C7.26758 3.45473 6.97612 3.36877 6.64107 3.25618C6.30602 3.14363 6.02067 3.06273 6.00701 3.07643C5.98475 3.09869 5.88962 3.51279 5.75865 4.15737L5.71294 4.38217L5.13134 4.35684C4.81141 4.34287 4.50004 4.32188 4.43933 4.31018L4.32896 4.28888L4.35682 4.99482L4.38468 5.70076L3.85319 5.81074C3.56089 5.87122 3.2656 5.92855 3.19699 5.93814C3.12841 5.94774 3.07227 5.97594 3.07227 6.00081C3.07227 6.02568 3.15861 6.30374 3.26414 6.61876C3.36967 6.93377 3.45602 7.21913 3.45602 7.25294C3.45602 7.29442 3.26314 7.40613 2.86121 7.59731C2.53406 7.75292 2.2664 7.89544 2.2664 7.91402C2.2664 7.93259 2.43045 8.19457 2.63096 8.49616C2.83147 8.79778 2.99552 9.05278 2.99552 9.0628C2.99552 9.07285 2.77103 9.27616 2.49665 9.51458C2.22227 9.753 1.99878 9.96744 2.00001 9.99108C2.00119 10.0148 2.10914 10.1247 2.23985 10.2354C2.37051 10.3461 2.59558 10.5447 2.73998 10.6767L3.00247 10.9167L2.63445 11.467C2.43203 11.7696 2.2664 12.0342 2.2664 12.055C2.2664 12.0758 2.53406 12.2211 2.86121 12.378C3.19415 12.5376 3.45602 12.686 3.45602 12.7149C3.45602 12.7435 3.36273 13.0413 3.24868 13.3767C3.13463 13.7122 3.04545 13.991 3.05047 13.9963C3.06079 14.0073 3.81942 14.1726 4.16107 14.2385L4.38645 14.2819L4.36135 14.825C4.34753 15.1238 4.32631 15.4349 4.31415 15.5164L4.29204 15.6646L5.0001 15.6367L5.70815 15.6087L5.83662 16.2655C5.92247 16.7046 5.98126 16.9223 6.01391 16.9223C6.04082 16.9223 6.31611 16.836 6.62568 16.7305C6.93529 16.6249 7.21723 16.5386 7.25219 16.5386C7.29632 16.5386 7.40331 16.7204 7.60201 17.133C7.81165 17.5682 7.90436 17.7238 7.9483 17.7141C7.98131 17.7067 8.24586 17.5418 8.5362 17.3475C8.93848 17.0782 9.07606 17.0041 9.11443 17.0359C9.1421 17.0589 9.3438 17.2844 9.56265 17.5371C9.78146 17.7898 9.97867 17.9966 10.0008 17.9966C10.023 17.9968 10.218 17.7912 10.434 17.5398C10.6501 17.2885 10.8509 17.0629 10.8803 17.0385C10.9227 17.0032 11.0422 17.0667 11.4616 17.3475C11.7519 17.5418 12.0165 17.7067 12.0495 17.7141C12.0934 17.7238 12.1861 17.5682 12.3958 17.133C12.5945 16.7204 12.7015 16.5386 12.7456 16.5386C12.7806 16.5386 13.0625 16.6249 13.3721 16.7305C13.6817 16.836 13.9571 16.9223 13.9842 16.9223C14.0173 16.9223 14.0756 16.707 14.1623 16.2656L14.2912 15.6088L14.9984 15.6367L15.7055 15.6646L15.6843 15.5548C15.6727 15.4943 15.6517 15.1832 15.6378 14.8633L15.6124 14.2817L15.8181 14.2397C15.9312 14.2167 16.2273 14.1568 16.4762 14.1066C16.7251 14.0565 16.935 14.009 16.9426 14.0011C16.9502 13.9932 16.8632 13.7122 16.7491 13.3767C16.6351 13.0413 16.5418 12.744 16.5418 12.7163C16.5418 12.6885 16.8094 12.5368 17.1366 12.3792C17.4637 12.2216 17.7314 12.074 17.7314 12.0512C17.7314 12.0284 17.5841 11.7919 17.404 11.5257C17.224 11.2595 17.0602 11.0108 17.0399 10.973C17.0091 10.9154 17.0832 10.8323 17.5016 10.4558C17.7757 10.2091 18 9.99423 18 9.9783C18 9.96238 17.7755 9.75439 17.5011 9.51604C17.2268 9.2777 17.0023 9.07458 17.0023 9.0646C17.0023 9.05466 17.1663 8.79974 17.3668 8.49812C17.5673 8.19653 17.7314 7.93466 17.7314 7.9162C17.7314 7.89778 17.4637 7.75484 17.1366 7.59854C16.735 7.4067 16.5418 7.29442 16.5418 7.25294C16.5418 7.21917 16.6281 6.93377 16.7336 6.61876C16.8392 6.30374 16.9255 6.02568 16.9255 6.00081C16.9255 5.97594 16.8694 5.94778 16.8008 5.93818C16.7322 5.92859 16.4367 5.87179 16.144 5.81197L15.612 5.70318L15.6399 4.99612L15.6678 4.28911L15.558 4.31029C15.4975 4.32192 15.1864 4.34287 14.8664 4.35684L14.2848 4.38217L14.2391 4.15737C14.1082 3.51279 14.013 3.09869 13.9908 3.07643C13.9771 3.06273 13.695 3.14217 13.3639 3.25296C13.0328 3.36371 12.7443 3.454 12.7229 3.45362C12.7015 3.4532 12.5497 3.18361 12.3856 2.85455C12.1558 2.39394 12.0735 2.26151 12.0277 2.27905C11.995 2.2916 11.7669 2.43719 11.5208 2.60258C11.2747 2.76794 11.036 2.92313 10.9903 2.94742C10.9138 2.9881 10.8735 2.95333 10.4751 2.50266C10.2374 2.2338 10.0244 2.00939 10.0017 2.00402C9.97905 1.99861 9.78883 2.19324 9.57896 2.4365ZM4.74663 8.98405C4.92791 9.02972 5.18287 9.23334 5.18287 9.33246C5.18287 9.36369 5.11464 9.42003 5.03126 9.45763L4.8796 9.52602L4.75968 9.42509C4.5797 9.27363 4.34209 9.28257 4.20459 9.44597C4.10482 9.56455 4.10244 9.57909 4.11483 9.99849C4.12914 10.4821 4.16955 10.5697 4.39811 10.6126C4.55894 10.6428 4.67376 10.6055 4.78289 10.4878L4.86981 10.394L5.02634 10.4739C5.11242 10.5178 5.18287 10.5759 5.18287 10.603C5.18287 10.6301 5.12673 10.7051 5.05816 10.7697C4.64244 11.1614 3.87315 10.974 3.72633 10.4454C3.66723 10.2326 3.67774 9.67372 3.74513 9.44685C3.86029 9.05911 4.27804 8.86609 4.74663 8.98405ZM6.51785 9.0514C6.80263 9.19669 6.90916 9.44382 6.9095 9.95996C6.90989 10.5004 6.77507 10.7751 6.44087 10.9147C6.15617 11.0336 5.74641 10.9686 5.53473 10.771C5.34696 10.5957 5.31772 10.4888 5.31745 9.97654C5.31722 9.56558 5.32854 9.47517 5.39658 9.34554C5.59129 8.97431 6.10344 8.84 6.51785 9.0514ZM10.3073 9.06691C10.3785 9.11341 10.4763 9.22056 10.5248 9.30498C10.6043 9.44351 10.6129 9.50714 10.6129 9.95735C10.6129 10.4186 10.6056 10.469 10.5169 10.6262C10.3395 10.9407 9.95334 11.0564 9.60674 10.8991L9.44484 10.8256L9.43405 11.2741L9.42327 11.7226H9.2314H9.03952V10.3603V8.99798L9.20561 8.98605C9.34717 8.97584 9.37476 8.98593 9.39269 9.05447C9.41279 9.13134 9.4179 9.13206 9.51111 9.07101C9.74209 8.91966 10.0796 8.91793 10.3073 9.06691ZM11.9752 9.05267C12.0491 9.08966 12.1613 9.19323 12.2246 9.2828L12.3397 9.4457V10.1812V10.9167L12.1902 10.929C12.1017 10.9362 12.0288 10.9221 12.0117 10.8945C11.9895 10.8586 11.9462 10.8624 11.8247 10.911C11.602 11.0001 11.3668 10.9911 11.1678 10.8859C10.7109 10.6443 10.711 9.90953 11.1679 9.67913C11.3663 9.57909 11.6734 9.56558 11.8217 9.65035C11.9555 9.72683 11.9752 9.72169 11.9752 9.61025C11.9752 9.55637 11.9307 9.46811 11.8761 9.4135C11.7828 9.32022 11.7612 9.31576 11.502 9.33699C11.3507 9.34938 11.1816 9.37041 11.1263 9.38373C11.0386 9.40487 11.0203 9.39213 10.9824 9.28361C10.9194 9.10286 10.9205 9.10129 11.1405 9.03951C11.5314 8.92972 11.7361 8.93294 11.9752 9.05267ZM13.9138 9.05597C13.9852 9.1001 14.0833 9.20006 14.1318 9.27812C14.2161 9.41362 14.2201 9.45426 14.2201 10.1684V10.9167L14.0378 10.9284L13.8555 10.9401L13.8515 10.3912C13.8492 10.0892 13.8435 9.81632 13.8388 9.78466C13.8341 9.753 13.8273 9.67879 13.8237 9.61973C13.8063 9.3343 13.3816 9.2166 13.1618 9.43634L13.0497 9.54851V10.2422V10.9359H12.8578C12.7013 10.9359 12.6656 10.9235 12.6641 10.8687C12.6253 9.46028 12.626 9.08444 12.6677 9.03421C12.693 9.00374 12.7786 8.9788 12.858 8.9788C12.9681 8.9788 13.0069 8.9963 13.0216 9.05255C13.0402 9.12332 13.0485 9.12239 13.2276 9.03033C13.449 8.91648 13.7035 8.92599 13.9138 9.05597ZM15.7197 9.05221C15.8313 9.11802 15.852 9.11967 15.9254 9.06829C16.0378 8.9895 16.215 8.94288 16.2708 8.97738C16.2967 8.99338 16.3117 9.06257 16.3048 9.1341C16.2945 9.23986 16.2723 9.26734 16.1772 9.29178L16.0621 9.32137V9.62303C16.0621 9.8963 16.0517 9.93835 15.9515 10.0698C15.8173 10.2459 15.6464 10.3227 15.3038 10.3609C15.0403 10.3903 14.93 10.4424 14.93 10.5377C14.93 10.5796 15.0235 10.5905 15.3809 10.5906C15.7344 10.5906 15.8603 10.6052 15.9634 10.6578C16.2172 10.7871 16.3191 11.0448 16.2371 11.3493C16.1927 11.5143 15.9504 11.7935 15.873 11.7689C15.8503 11.7617 15.7978 11.6934 15.7562 11.6171L15.6805 11.4784L15.785 11.3962C15.8606 11.3367 15.8894 11.2795 15.8894 11.1885C15.8894 10.9617 15.8247 10.9392 15.1392 10.9273L14.5271 10.9167L14.5144 10.8056C14.4976 10.658 14.6087 10.3749 14.7126 10.3009C14.7899 10.2457 14.791 10.2389 14.7283 10.2029C14.6119 10.1362 14.5079 9.88045 14.5079 9.66087C14.5079 9.3272 14.6592 9.11821 14.9898 8.99534C15.1827 8.92365 15.5503 8.95228 15.7197 9.05221ZM7.5621 9.68873C7.57423 10.1255 7.5984 10.4093 7.6278 10.4606C7.74668 10.6679 8.11516 10.6693 8.26835 10.4631C8.34943 10.354 8.35542 10.266 8.36766 9.00547C8.36781 8.98851 8.44997 8.97987 8.55025 8.98628L8.73253 8.99798L8.74277 9.96694L8.75302 10.9359H8.57849C8.46022 10.9359 8.39694 10.9177 8.38228 10.8795C8.36386 10.8314 8.33834 10.8343 8.21232 10.8986C7.87865 11.0688 7.44874 10.9492 7.26447 10.6348C7.16297 10.4617 7.15932 10.4354 7.14558 9.77457C7.12935 8.99422 7.13729 8.96824 7.38611 8.98647L7.54291 8.99798L7.5621 9.68873ZM5.83229 9.43634C5.72188 9.54674 5.72012 9.55515 5.72012 9.97143C5.72012 10.3632 5.72695 10.4023 5.81272 10.502C5.892 10.5942 5.93394 10.6097 6.10386 10.6097C6.27379 10.6097 6.31573 10.5942 6.39501 10.502C6.48063 10.4025 6.48761 10.3629 6.48761 9.97734C6.48761 9.58465 6.48182 9.55342 6.38826 9.44225C6.30449 9.3427 6.26189 9.32417 6.11668 9.32417C5.9775 9.32417 5.92293 9.3457 5.83229 9.43634ZM9.55463 9.43634C9.44422 9.54674 9.44246 9.55515 9.44246 9.97143C9.44246 10.3632 9.44929 10.4023 9.53506 10.502C9.61434 10.5942 9.65628 10.6097 9.8262 10.6097C9.99613 10.6097 10.0381 10.5942 10.1174 10.502C10.2031 10.4023 10.21 10.3632 10.21 9.97143C10.21 9.55515 10.2082 9.54674 10.0978 9.43634C10.0098 9.34838 9.95123 9.32417 9.8262 9.32417C9.70118 9.32417 9.64262 9.34838 9.55463 9.43634ZM15.0038 9.43634C14.6944 9.74575 15.0979 10.1682 15.5029 9.95877C15.6278 9.89418 15.6591 9.83137 15.6591 9.64548C15.6591 9.44666 15.5197 9.32417 15.2934 9.32417C15.1485 9.32417 15.0955 9.3447 15.0038 9.43634ZM11.4089 9.95712C11.1864 10.0538 11.1411 10.338 11.3199 10.5167C11.6245 10.8214 12.1354 10.4627 11.9337 10.0859C11.8932 10.0101 11.6808 9.89829 11.5831 9.90128C11.556 9.90213 11.4776 9.92723 11.4089 9.95712Z" fill="#5F43FF"/>
</svg>
