<svg width="25" height="25" viewBox="0 0 25 25" fill="none" xmlns="http://www.w3.org/2000/svg">
<path d="M8.70901 0.820881C6.21112 1.68742 4.05695 3.33214 2.5629 5.51346C1.06885 7.69478 0.313682 10.2977 0.408313 12.94C0.502944 15.5822 1.44239 18.1244 3.08865 20.1933C4.73492 22.2621 7.00124 23.7485 9.55471 24.4342C11.6249 24.9683 13.7938 24.9918 15.875 24.5025C17.7604 24.079 19.5035 23.1732 20.9336 21.8736C22.4221 20.4798 23.5024 18.7066 24.0586 16.7447C24.6632 14.6112 24.7707 12.3676 24.3731 10.1861H12.7481V15.0084H19.4805C19.3459 15.7775 19.0576 16.5116 18.6327 17.1666C18.2079 17.8217 17.6552 18.3844 17.0078 18.8209C16.1857 19.3647 15.259 19.7306 14.2871 19.8951C13.3124 20.0763 12.3126 20.0763 11.3379 19.8951C10.35 19.6908 9.41545 19.2831 8.59378 18.6978C7.27375 17.7634 6.2826 16.436 5.76175 14.9049C5.23209 13.3451 5.23209 11.6541 5.76175 10.0943C6.1325 9.00099 6.74541 8.00552 7.55471 7.18221C8.48087 6.22273 9.65341 5.53689 10.9437 5.19994C12.234 4.86298 13.5921 4.88793 14.8692 5.27205C15.8668 5.57829 16.779 6.11334 17.5332 6.83455C18.2923 6.07934 19.0502 5.32218 19.8067 4.56307C20.1973 4.15487 20.6231 3.76619 21.0078 3.34822C19.8566 2.27689 18.5053 1.44326 17.0313 0.8951C14.3471 -0.0795294 11.4101 -0.105722 8.70901 0.820881Z" fill="white"/>
<path d="M8.70898 0.82183C11.4099 -0.105402 14.3469 -0.0798995 17.0312 0.894096C18.5055 1.44598 19.8562 2.28362 21.0059 3.35894C20.6152 3.77691 20.2031 4.16753 19.8047 4.57378C19.0469 5.33029 18.2897 6.0842 17.5332 6.8355C16.779 6.11429 15.8667 5.57924 14.8691 5.273C13.5925 4.88754 12.2344 4.86114 10.9438 5.19672C9.65316 5.53229 8.47991 6.21687 7.55273 7.17535C6.74342 7.99866 6.13052 8.99413 5.75977 10.0875L1.71094 6.95269C3.16017 4.07879 5.66943 1.88047 8.70898 0.82183Z" fill="#E33629"/>
<path d="M0.636713 10.0586C0.854333 8.98007 1.21563 7.9356 1.71093 6.95312L5.75976 10.0957C5.2301 11.6555 5.2301 13.3465 5.75976 14.9062C4.4108 15.9479 3.06119 16.9948 1.71093 18.0469C0.470992 15.5787 0.0928316 12.7666 0.636713 10.0586Z" fill="#F8BD00"/>
<path d="M12.7479 10.1875H24.3729C24.7706 12.369 24.663 14.6126 24.0585 16.7461C23.5023 18.708 22.4219 20.4811 20.9335 21.875C19.6268 20.8555 18.3143 19.8438 17.0077 18.8242C17.6555 18.3873 18.2084 17.824 18.6333 17.1682C19.0582 16.5124 19.3463 15.7776 19.4804 15.0078H12.7479C12.746 13.4023 12.7479 11.7949 12.7479 10.1875Z" fill="#587DBD"/>
<path d="M1.70898 18.0469C3.05924 17.0052 4.40885 15.9583 5.75781 14.9062C6.2797 16.4379 7.27228 17.7654 8.59375 18.6992C9.41798 19.2818 10.3546 19.6862 11.3438 19.8867C12.3185 20.068 13.3182 20.068 14.293 19.8867C15.2648 19.7222 16.1916 19.3563 17.0137 18.8125C18.3203 19.832 19.6328 20.8438 20.9395 21.8633C19.5096 23.1635 17.7664 24.0701 15.8809 24.4941C13.7996 24.9834 11.6307 24.96 9.56055 24.4258C7.92325 23.9886 6.3939 23.218 5.06836 22.1621C3.66535 21.0482 2.51944 19.6445 1.70898 18.0469Z" fill="#319F43"/>
</svg>
