<svg width="30" height="30" viewBox="0 0 30 30" fill="none" xmlns="http://www.w3.org/2000/svg">
<path d="M14.9997 3.75C22.2497 3.75 28.126 8.33 28.126 13.9813C28.126 19.6313 22.2497 24.2113 15.001 24.2113C14.2792 24.21 13.5583 24.1641 12.8422 24.0738L7.33223 27.6775C6.70598 28.0088 6.48473 27.9725 6.74223 27.1613L7.85723 22.5638C4.25723 20.7388 1.87598 17.5763 1.87598 13.9813C1.87598 8.33125 7.75098 3.75 15.001 3.75M22.386 13.825L24.2235 12.045C24.3295 11.9349 24.3887 11.7879 24.3885 11.6351C24.3883 11.4822 24.3288 11.3354 24.2225 11.2255C24.1162 11.1157 23.9714 11.0513 23.8186 11.0461C23.6659 11.0409 23.517 11.0952 23.4035 11.1975L20.9935 13.53V11.6025C20.9935 11.446 20.9313 11.296 20.8207 11.1853C20.71 11.0747 20.56 11.0125 20.4035 11.0125C20.247 11.0125 20.0969 11.0747 19.9863 11.1853C19.8756 11.296 19.8135 11.446 19.8135 11.6025V14.7987C19.7927 14.8901 19.7927 14.9849 19.8135 15.0763V16.875C19.8135 17.0315 19.8756 17.1815 19.9863 17.2922C20.0969 17.4028 20.247 17.465 20.4035 17.465C20.56 17.465 20.71 17.4028 20.8207 17.2922C20.9313 17.1815 20.9935 17.0315 20.9935 16.875V15.1713L21.5272 14.655L23.3122 17.1962C23.3568 17.2597 23.4134 17.3137 23.4789 17.3553C23.5443 17.3969 23.6173 17.4251 23.6937 17.4385C23.7701 17.4518 23.8483 17.45 23.924 17.4331C23.9997 17.4162 24.0713 17.3846 24.1347 17.34C24.1982 17.2954 24.2522 17.2388 24.2938 17.1734C24.3353 17.1079 24.3636 17.0349 24.3769 16.9585C24.3903 16.8821 24.3885 16.8039 24.3716 16.7282C24.3547 16.6525 24.323 16.5809 24.2785 16.5175L22.386 13.825ZM18.6885 16.23H16.8635V11.6213C16.8565 11.4696 16.7913 11.3265 16.6816 11.2217C16.5718 11.1169 16.4259 11.0584 16.2741 11.0584C16.1223 11.0584 15.9764 11.1169 15.8666 11.2217C15.7569 11.3265 15.6917 11.4696 15.6847 11.6213V16.82C15.6847 17.145 15.9472 17.41 16.2735 17.41H18.6885C18.845 17.41 18.995 17.3478 19.1057 17.2372C19.2163 17.1265 19.2785 16.9765 19.2785 16.82C19.2785 16.6635 19.2163 16.5135 19.1057 16.4028C18.995 16.2922 18.845 16.23 18.6885 16.23ZM11.3672 14.8662L12.2372 12.7313L13.0347 14.865L11.3672 14.8662ZM14.521 15.475L14.5235 15.455C14.5231 15.3064 14.4663 15.1635 14.3647 15.055L13.0572 11.555C13.0024 11.3882 12.898 11.2421 12.758 11.1362C12.6179 11.0304 12.4489 10.9698 12.2735 10.9625C12.0969 10.9624 11.9245 11.0157 11.7788 11.1155C11.6331 11.2152 11.521 11.3566 11.4572 11.5212L9.37973 16.615C9.32055 16.7599 9.32135 16.9223 9.38195 17.0666C9.44254 17.2109 9.55798 17.3252 9.70285 17.3844C9.84773 17.4436 10.0102 17.4428 10.1545 17.3822C10.2987 17.3216 10.4131 17.2061 10.4722 17.0613L10.8872 16.045H13.4747L13.8472 17.045C13.8726 17.1197 13.9128 17.1886 13.9653 17.2476C14.0178 17.3065 14.0816 17.3543 14.153 17.3882C14.2243 17.422 14.3017 17.4412 14.3806 17.4446C14.4595 17.4479 14.5382 17.4355 14.6122 17.4078C14.6861 17.3802 14.7538 17.3381 14.8112 17.2838C14.8685 17.2296 14.9144 17.1644 14.9461 17.0921C14.9779 17.0198 14.9947 16.9418 14.9958 16.8629C14.9968 16.784 14.982 16.7056 14.9522 16.6325L14.521 15.475ZM10.3672 11.6275C10.3676 11.55 10.3526 11.4733 10.3231 11.4016C10.2937 11.33 10.2503 11.2648 10.1956 11.21C10.1409 11.1552 10.0759 11.1117 10.0043 11.0821C9.93268 11.0525 9.85594 11.0373 9.77848 11.0375H5.72223C5.56575 11.0375 5.41568 11.0997 5.30503 11.2103C5.19439 11.321 5.13223 11.471 5.13223 11.6275C5.13223 11.784 5.19439 11.934 5.30503 12.0447C5.41568 12.1553 5.56575 12.2175 5.72223 12.2175H7.17223V16.8875C7.17223 17.044 7.23439 17.194 7.34503 17.3047C7.45568 17.4153 7.60575 17.4775 7.76223 17.4775C7.9187 17.4775 8.06877 17.4153 8.17942 17.3047C8.29007 17.194 8.35223 17.044 8.35223 16.8875V12.2175H9.77723C9.8548 12.2178 9.93167 12.2028 10.0034 12.1733C10.0751 12.1437 10.1403 12.1003 10.1952 12.0454C10.25 11.9906 10.2935 11.9254 10.323 11.8537C10.3525 11.7819 10.3676 11.7051 10.3672 11.6275Z" fill="#222222"/>
</svg>
