<svg width="20" height="20" viewBox="0 0 20 20" fill="none" xmlns="http://www.w3.org/2000/svg">
<path fill-rule="evenodd" clip-rule="evenodd" d="M10.4942 19.384L10.4842 19.3856L10.425 19.4148L10.4083 19.4181L10.3967 19.4148L10.3375 19.3848C10.3286 19.3826 10.3219 19.3843 10.3175 19.3898L10.3142 19.3981L10.3 19.7548L10.3042 19.7715L10.3125 19.7823L10.3992 19.844L10.4117 19.8473L10.4217 19.844L10.5083 19.7823L10.5183 19.769L10.5217 19.7548L10.5075 19.399C10.5053 19.3901 10.5008 19.3851 10.4942 19.384ZM10.7142 19.2898L10.7025 19.2915L10.5492 19.369L10.5408 19.3773L10.5383 19.3865L10.5533 19.7448L10.5575 19.7548L10.5642 19.7615L10.7317 19.8381C10.7422 19.8409 10.7503 19.8387 10.7558 19.8315L10.7592 19.8198L10.7308 19.3081C10.7281 19.2976 10.7225 19.2915 10.7142 19.2898ZM10.1183 19.2915C10.1147 19.2892 10.1103 19.2885 10.1061 19.2895C10.1019 19.2904 10.0982 19.2929 10.0958 19.2965L10.0908 19.3081L10.0625 19.8198C10.0631 19.8298 10.0678 19.8365 10.0767 19.8398L10.0892 19.8381L10.2567 19.7606L10.265 19.754L10.2675 19.7448L10.2825 19.3865L10.28 19.3765L10.2717 19.3681L10.1183 19.2915Z" fill="#999999"/>
<path fill-rule="evenodd" clip-rule="evenodd" d="M14.7137 2.09766C14.9178 2.09768 15.1149 2.17262 15.2674 2.30825C15.4199 2.44388 15.5174 2.63078 15.5412 2.83349L15.5471 2.93099V3.27599L15.8921 2.93099C16.042 2.78153 16.2433 2.69476 16.4549 2.6883C16.6665 2.68184 16.8727 2.75617 17.0315 2.8962C17.1903 3.03622 17.2898 3.23145 17.3099 3.44222C17.33 3.65299 17.2691 3.8635 17.1396 4.03099L17.0704 4.10932L16.7254 4.45432H17.0704C17.2828 4.45456 17.4871 4.53589 17.6415 4.6817C17.796 4.8275 17.8889 5.02678 17.9014 5.23882C17.9138 5.45085 17.8448 5.65964 17.7085 5.82252C17.5722 5.98539 17.3788 6.09007 17.1679 6.11516L17.0704 6.12099H15.3562C16.4104 7.93432 15.9012 10.3427 14.0621 11.5377L13.8912 11.6427L4.71624 16.9952C3.63874 17.6235 2.43291 16.4668 2.95457 15.3835L3.00624 15.2852L8.35874 6.11016C9.47874 4.19016 11.8662 3.59349 13.7137 4.55349L13.8804 4.64516V2.93099C13.8804 2.70998 13.9682 2.49801 14.1245 2.34173C14.2808 2.18545 14.4927 2.09766 14.7137 2.09766ZM10.5887 10.591C10.4388 10.4415 10.2375 10.3548 10.0259 10.3483C9.81429 10.3418 9.60814 10.4162 9.44934 10.5562C9.29054 10.6962 9.19098 10.8914 9.17091 11.1022C9.15083 11.313 9.21173 11.5235 9.34124 11.691L9.41041 11.7693L10.2937 12.6527C10.4434 12.8037 10.645 12.8918 10.8575 12.8991C11.07 12.9063 11.2772 12.832 11.4367 12.6914C11.5962 12.5509 11.696 12.3547 11.7156 12.143C11.7352 11.9313 11.6731 11.7201 11.5421 11.5527L11.4729 11.4752L10.5887 10.591ZM8.82124 6.46599C8.66501 6.62226 8.57725 6.83419 8.57725 7.05516C8.57725 7.27613 8.66501 7.48805 8.82124 7.64432L9.99957 8.82349C10.1559 8.97975 10.368 9.06749 10.589 9.06741C10.8101 9.06733 11.0221 8.97944 11.1783 8.82307C11.3346 8.66671 11.4223 8.45467 11.4222 8.23361C11.4222 8.01255 11.3343 7.80058 11.1779 7.64432L9.99957 6.46599C9.8433 6.30976 9.63138 6.222 9.41041 6.222C9.18944 6.222 8.97751 6.30976 8.82124 6.46599Z" fill="#999999"/>
</svg>
