<svg width="25" height="25" viewBox="0 0 25 25" fill="none" xmlns="http://www.w3.org/2000/svg">
<path d="M17.1621 5.63315L19.3673 7.83836M18.5798 3.69044L12.6142 9.65607C12.305 9.9632 12.0947 10.3557 12.01 10.7832L11.459 13.5415L14.2173 12.9894C14.6444 12.904 15.0361 12.6946 15.3444 12.3863L21.31 6.42065C21.4893 6.24138 21.6315 6.02856 21.7285 5.79434C21.8255 5.56011 21.8755 5.30907 21.8755 5.05555C21.8755 4.80203 21.8255 4.55098 21.7285 4.31676C21.6315 4.08253 21.4893 3.86971 21.31 3.69044C21.1308 3.51118 20.9179 3.36897 20.6837 3.27195C20.4495 3.17494 20.1984 3.125 19.9449 3.125C19.6914 3.125 19.4404 3.17494 19.2061 3.27195C18.9719 3.36897 18.7591 3.51118 18.5798 3.69044Z" stroke="#B3B3B3" stroke-width="2.08333" stroke-linecap="round" stroke-linejoin="round"/>
<path d="M19.792 15.6237V18.7487C19.792 19.3012 19.5725 19.8311 19.1818 20.2218C18.7911 20.6125 18.2612 20.832 17.7087 20.832H6.25033C5.69779 20.832 5.16789 20.6125 4.77719 20.2218C4.38649 19.8311 4.16699 19.3012 4.16699 18.7487V7.29036C4.16699 6.73783 4.38649 6.20793 4.77719 5.81723C5.16789 5.42652 5.69779 5.20703 6.25033 5.20703H9.37533" stroke="#B3B3B3" stroke-width="2.08333" stroke-linecap="round" stroke-linejoin="round"/>
</svg>
