<svg width="25" height="25" viewBox="0 0 25 25" fill="none" xmlns="http://www.w3.org/2000/svg">
<path d="M1.09375 21.875V18.9583C1.09375 18.3854 1.24132 17.8472 1.53646 17.3437C1.8316 16.8403 2.23958 16.4583 2.76042 16.1979C3.64583 15.7465 4.6441 15.3646 5.75521 15.0521C6.86632 14.7396 8.09028 14.5833 9.42708 14.5833C10.7639 14.5833 11.9878 14.7396 13.099 15.0521C14.2101 15.3646 15.2083 15.7465 16.0937 16.1979C16.6146 16.4583 17.0226 16.8403 17.3177 17.3437C17.6128 17.8472 17.7604 18.3854 17.7604 18.9583V21.875H1.09375ZM3.17708 19.7917H15.6771V18.9583C15.6771 18.7674 15.6295 18.5938 15.5344 18.4375C15.4392 18.2812 15.3132 18.1597 15.1562 18.0729C14.5312 17.7604 13.7285 17.4479 12.7479 17.1354C11.7674 16.8229 10.6604 16.6667 9.42708 16.6667C8.19375 16.6667 7.08715 16.8229 6.10729 17.1354C5.12743 17.4479 4.32431 17.7604 3.69792 18.0729C3.54167 18.1597 3.41597 18.2812 3.32083 18.4375C3.22569 18.5938 3.17778 18.7674 3.17708 18.9583V19.7917ZM9.42708 13.5417C8.28125 13.5417 7.30035 13.1337 6.48438 12.3177C5.6684 11.5017 5.26042 10.5208 5.26042 9.375H5C4.84375 9.375 4.71806 9.32743 4.62292 9.23229C4.52778 9.13715 4.47986 9.01111 4.47917 8.85417C4.47847 8.69722 4.52639 8.57118 4.62292 8.47604C4.71944 8.3809 4.84514 8.33333 5 8.33333H5.26042C5.26042 7.55208 5.45139 6.84896 5.83333 6.22396C6.21528 5.59896 6.71875 5.10417 7.34375 4.73958V5.72917C7.34375 5.88542 7.39167 6.01146 7.4875 6.10729C7.58333 6.20312 7.70903 6.25069 7.86458 6.25C8.02014 6.24931 8.14618 6.20174 8.24271 6.10729C8.33924 6.01285 8.38681 5.88681 8.38542 5.72917V4.32292C8.54167 4.27083 8.7066 4.23194 8.88021 4.20625C9.05382 4.18056 9.23611 4.16736 9.42708 4.16667C9.61806 4.16597 9.80035 4.17917 9.97396 4.20625C10.1476 4.23333 10.3125 4.27222 10.4688 4.32292V5.72917C10.4688 5.88542 10.5167 6.01146 10.6125 6.10729C10.7083 6.20312 10.834 6.25069 10.9896 6.25C11.1451 6.24931 11.2712 6.20174 11.3677 6.10729C11.4642 6.01285 11.5118 5.88681 11.5104 5.72917V4.73958C12.1354 5.10417 12.6389 5.59896 13.0208 6.22396C13.4028 6.84896 13.5937 7.55208 13.5938 8.33333H13.8542C14.0104 8.33333 14.1365 8.38125 14.2323 8.47708C14.3281 8.57292 14.3757 8.69861 14.375 8.85417C14.3743 9.00972 14.3267 9.13576 14.2323 9.23229C14.1378 9.32882 14.0118 9.37639 13.8542 9.375H13.5938C13.5938 10.5208 13.1858 11.5017 12.3698 12.3177C11.5538 13.1337 10.5729 13.5417 9.42708 13.5417ZM9.42708 11.4583C10 11.4583 10.4906 11.2545 10.899 10.8469C11.3073 10.4392 11.5111 9.94861 11.5104 9.375H7.34375C7.34375 9.94792 7.54792 10.4385 7.95625 10.8469C8.36458 11.2552 8.85486 11.459 9.42708 11.4583ZM17.2396 15.625L17.0833 14.8438C16.9792 14.809 16.8795 14.7701 16.7844 14.7271C16.6892 14.684 16.5979 14.6187 16.5104 14.5312L15.7812 14.7917L15.2604 13.8542L15.8333 13.3333V12.7083L15.2604 12.1875L15.7812 11.25L16.5104 11.5104C16.5799 11.441 16.6667 11.3802 16.7708 11.3281C16.875 11.276 16.9792 11.2326 17.0833 11.1979L17.2396 10.4167H18.2812L18.4375 11.1979C18.5417 11.2326 18.6458 11.276 18.75 11.3281C18.8542 11.3802 18.941 11.441 19.0104 11.5104L19.7396 11.25L20.2604 12.1875L19.6875 12.7083V13.3333L20.2604 13.8542L19.7396 14.7917L19.0104 14.5312C18.9236 14.6181 18.8326 14.6833 18.7375 14.7271C18.6424 14.7708 18.5424 14.8097 18.4375 14.8438L18.2812 15.625H17.2396ZM17.7604 13.8021C17.9687 13.8021 18.151 13.724 18.3073 13.5677C18.4635 13.4115 18.5417 13.2292 18.5417 13.0208C18.5417 12.8125 18.4635 12.6302 18.3073 12.474C18.151 12.3177 17.9687 12.2396 17.7604 12.2396C17.5521 12.2396 17.3698 12.3177 17.2135 12.474C17.0573 12.6302 16.9792 12.8125 16.9792 13.0208C16.9792 13.2292 17.0573 13.4115 17.2135 13.5677C17.3698 13.724 17.5521 13.8021 17.7604 13.8021ZM19.6354 10.4167L19.4271 9.32292C19.2708 9.27083 19.1278 9.2059 18.9979 9.12812C18.8681 9.05035 18.7507 8.95903 18.6458 8.85417L17.5521 9.21875L16.8229 7.96875L17.7083 7.1875C17.6736 7.10069 17.6562 7.03125 17.6562 6.97917V6.5625C17.6562 6.51042 17.6736 6.44097 17.7083 6.35417L16.8229 5.57292L17.5521 4.32292L18.6458 4.6875C18.75 4.58333 18.8674 4.49201 18.9979 4.41354C19.1285 4.33507 19.2715 4.27014 19.4271 4.21875L19.6354 3.125H21.0938L21.3021 4.21875C21.4583 4.27083 21.6017 4.33611 21.7323 4.41458C21.8628 4.49306 21.9799 4.58403 22.0833 4.6875L23.1771 4.32292L23.9062 5.57292L23.0208 6.35417C23.0556 6.44097 23.0729 6.51042 23.0729 6.5625V6.97917C23.0729 7.03125 23.0556 7.10069 23.0208 7.1875L23.9062 7.96875L23.1771 9.21875L22.0833 8.85417C21.9792 8.95833 21.8622 9.04965 21.7323 9.12812C21.6024 9.2066 21.459 9.27153 21.3021 9.32292L21.0938 10.4167H19.6354ZM20.3646 8.07292C20.7292 8.07292 21.0375 7.94688 21.2896 7.69479C21.5417 7.44271 21.6674 7.13472 21.6667 6.77083C21.666 6.40694 21.5399 6.09861 21.2885 5.84583C21.0372 5.59306 20.7292 5.46736 20.3646 5.46875C20 5.47014 19.6917 5.59618 19.4396 5.84687C19.1875 6.09757 19.0618 6.40556 19.0625 6.77083C19.0632 7.13611 19.1892 7.44444 19.4406 7.69583C19.692 7.94722 20 8.07292 20.3646 8.07292Z" fill="#B3B3B3"/>
</svg>
