<svg width="25" height="25" viewBox="0 0 25 25" fill="none" xmlns="http://www.w3.org/2000/svg">
<path d="M12.4997 16.1445C13.0726 16.1445 13.5632 15.9407 13.9715 15.5331C14.3799 15.1254 14.5837 14.6348 14.583 14.0612C14.5823 13.4876 14.3785 12.9973 13.9715 12.5904C13.5646 12.1834 13.074 11.9793 12.4997 11.9779C11.9254 11.9765 11.4351 12.1806 11.0288 12.5904C10.6226 13.0001 10.4184 13.4904 10.4163 14.0612C10.4143 14.632 10.6184 15.1227 11.0288 15.5331C11.4393 15.9435 11.9295 16.1473 12.4997 16.1445ZM4.16634 21.8737C3.59342 21.8737 3.10315 21.6699 2.69551 21.2622C2.28787 20.8546 2.0837 20.364 2.08301 19.7904V8.33203C2.08301 7.75912 2.28717 7.26884 2.69551 6.8612C3.10384 6.45356 3.59412 6.24939 4.16634 6.2487H8.33301V4.16537C8.33301 3.59245 8.53717 3.10217 8.94551 2.69453C9.35384 2.28689 9.84412 2.08273 10.4163 2.08203H14.583C15.1559 2.08203 15.6465 2.2862 16.0549 2.69453C16.4632 3.10286 16.667 3.59314 16.6663 4.16537V6.2487H20.833C21.4059 6.2487 21.8965 6.45287 22.3049 6.8612C22.7132 7.26953 22.917 7.75981 22.9163 8.33203V19.7904C22.9163 20.3633 22.7125 20.8539 22.3049 21.2622C21.8972 21.6706 21.4066 21.8744 20.833 21.8737H4.16634ZM4.16634 19.7904H20.833V8.33203H4.16634V19.7904ZM10.4163 6.2487H14.583V4.16537H10.4163V6.2487Z" fill="#B3B3B3"/>
</svg>
