<svg width="25" height="25" viewBox="0 0 25 25" fill="none" xmlns="http://www.w3.org/2000/svg">
<path d="M8.33366 12.4987H16.667V14.582H8.33366V12.4987ZM10.417 20.832H6.25033V4.16536H13.542V9.3737H18.7503V12.6029L20.8337 10.5195V8.33203L14.5837 2.08203H6.25033C5.69779 2.08203 5.16789 2.30152 4.77719 2.69223C4.38649 3.08293 4.16699 3.61283 4.16699 4.16536V20.832C4.16699 21.3846 4.38649 21.9145 4.77719 22.3052C5.16789 22.6959 5.69779 22.9154 6.25033 22.9154H10.417V20.832ZM8.33366 18.7487H12.6045L13.542 17.8112V16.6654H8.33366V18.7487ZM21.042 13.5404C21.1462 13.5404 21.3545 13.6445 21.4587 13.7487L22.8128 15.1029C23.0212 15.3112 23.0212 15.7279 22.8128 15.9362L21.7712 16.9779L19.5837 14.7904L20.6253 13.7487C20.7295 13.6445 20.8337 13.5404 21.042 13.5404ZM21.042 17.6029L14.6878 23.957H12.5003V21.7695L18.8545 15.4154L21.042 17.6029Z" fill="#B3B3B3"/>
</svg>
