<svg width="20" height="20" viewBox="0 0 20 20" fill="none" xmlns="http://www.w3.org/2000/svg">
<path fill-rule="evenodd" clip-rule="evenodd" d="M1.66699 9.58333C1.66699 5.53583 5.54699 2.5 10.0003 2.5C14.4537 2.5 18.3337 5.53583 18.3337 9.58333C18.3337 13.6308 14.4537 16.6667 10.0003 16.6667C9.56199 16.6667 9.13255 16.6389 8.71199 16.5833L6.29533 18.1933C6.1582 18.2847 5.99708 18.3333 5.83232 18.3331C5.66756 18.3329 5.50656 18.2838 5.36967 18.1922C5.23278 18.1005 5.12613 17.9703 5.06321 17.818C5.00029 17.6657 4.98391 17.4982 5.01616 17.3367L5.38699 15.4858C3.19033 14.2417 1.66699 12.0975 1.66699 9.58333ZM8.33366 5.83333C8.55467 5.83333 8.76663 5.92113 8.92291 6.07741C9.07919 6.23369 9.16699 6.44565 9.16699 6.66667V12.5C9.16699 12.721 9.07919 12.933 8.92291 13.0893C8.76663 13.2455 8.55467 13.3333 8.33366 13.3333C8.11265 13.3333 7.90068 13.2455 7.7444 13.0893C7.58812 12.933 7.50033 12.721 7.50033 12.5V6.66667C7.50033 6.44565 7.58812 6.23369 7.7444 6.07741C7.90068 5.92113 8.11265 5.83333 8.33366 5.83333ZM9.16699 10.4167C9.16699 10.2325 9.22783 10.0483 9.35033 9.89583L11.017 7.8125C11.1576 7.64785 11.3567 7.54438 11.5723 7.52401C11.7878 7.50363 12.0028 7.56794 12.1718 7.70332C12.3408 7.83871 12.4504 8.03453 12.4775 8.24934C12.5046 8.46414 12.447 8.68106 12.317 8.85417L11.067 10.4167L12.317 11.9792C12.3895 12.0641 12.4442 12.1626 12.4778 12.2691C12.5115 12.3755 12.5234 12.4876 12.5129 12.5987C12.5024 12.7099 12.4697 12.8178 12.4167 12.916C12.3637 13.0142 12.2915 13.1008 12.2044 13.1706C12.1172 13.2404 12.017 13.292 11.9096 13.3223C11.8021 13.3526 11.6897 13.3611 11.579 13.3471C11.4682 13.3331 11.3614 13.297 11.2649 13.241C11.1683 13.1849 11.084 13.1101 11.017 13.0208L9.35033 10.9375C9.2318 10.7898 9.16714 10.6061 9.16699 10.4167Z" fill="#999999"/>
</svg>
