<svg width="20" height="20" viewBox="0 0 20 20" fill="none" xmlns="http://www.w3.org/2000/svg">
<path fill-rule="evenodd" clip-rule="evenodd" d="M9.99434 2.29477C9.99434 2.52159 10.0161 2.53824 10.8482 2.9497C11.7098 3.37569 11.7151 3.38214 11.3143 3.51043C11.1919 3.54963 11.1964 3.56706 11.3711 3.72895C11.7196 4.05195 11.9608 4.90718 12.2193 6.73758C12.3643 7.76484 12.3843 7.836 12.5376 7.87222L12.7013 7.91085L12.5486 8.04906C12.2188 8.34754 12.0574 8.00675 11.878 6.63381C11.6522 4.90463 11.2936 3.83407 10.9401 3.83407C10.8568 3.83407 10.865 3.87581 10.9799 4.03714L11.1244 4.24028L10.5771 4.11043C10.1834 4.01708 9.74144 3.97972 9.00203 3.97717C8.03672 3.97391 7.93118 3.98745 7.26548 4.19988C6.51798 4.43846 6.23772 4.61643 6.23772 4.85261C6.23772 4.98026 6.26296 4.97161 6.46808 4.77372C6.85112 4.40415 7.54127 4.20299 8.62098 4.14622C9.44467 4.10291 9.62364 4.11517 10.183 4.25339C10.5304 4.3393 10.8579 4.43619 10.9107 4.46886C10.9721 4.50678 11.1169 5.1649 11.3116 6.28983C11.4792 7.25869 11.6654 8.14064 11.7254 8.24972L11.8345 8.44805L11.324 8.69272C11.0432 8.82732 10.7647 8.93967 10.7051 8.94236C10.5125 8.95122 10.8637 9.06881 11.0987 9.0742C11.2587 9.07781 11.3436 9.12863 11.416 9.26401C11.5117 9.44291 11.5023 9.46028 11.1268 9.79837C10.54 10.3266 10.5108 10.3404 9.58353 10.5292C8.29621 10.7914 7.87767 10.9123 7.72357 11.0664C7.57118 11.2188 7.44268 11.2481 7.44268 11.1305C7.44268 11.0892 7.4139 11.0732 7.37867 11.095C7.34351 11.1167 7.28142 11.0389 7.24067 10.9222C7.19998 10.8054 7.08431 10.6722 6.98366 10.6264C6.59815 10.4507 6.20292 11.0347 6.49147 11.3535C6.55895 11.4281 6.66116 11.4891 6.71878 11.4891C6.88833 11.4891 6.77811 12.0203 6.54534 12.3245C6.37842 12.5428 6.33802 12.6769 6.3086 13.1101L6.27316 13.6325L5.5448 13.6488C4.84607 13.6644 4.79185 13.6772 4.21248 13.9643C3.60051 14.2675 3.17445 14.5844 3.03935 14.8369C2.97365 14.9595 2.98321 14.9698 3.12178 14.9258C3.23654 14.8894 3.26404 14.8996 3.22442 14.9637C3.131 15.1148 3.17813 16.1173 3.29409 16.4453C3.42324 16.8104 3.72929 17.2205 4.17102 17.6202L4.48445 17.9037H5.42594C6.35893 17.9037 6.37027 17.9017 6.6747 17.6893C6.84367 17.5712 7.03625 17.3668 7.10267 17.2347C7.26938 16.9033 7.35925 16.867 7.65085 17.0133C7.88348 17.1299 8.04338 17.1353 9.67538 17.08C10.65 17.047 11.5833 17.0002 11.7493 16.9759C12.1869 16.9119 12.3188 16.9687 12.8114 17.4331C13.0787 17.6851 13.3418 17.8679 13.4759 17.8947C13.8084 17.9612 14.7112 17.9482 14.8981 17.8741C15.1582 17.7711 15.5174 17.4 15.6555 17.0915C15.7252 16.9357 15.8691 16.7278 15.9752 16.6294C16.1663 16.4524 16.1681 16.442 16.1563 15.5935L16.1446 14.7363L16.4013 14.5248C16.5425 14.4084 16.6969 14.2439 16.7445 14.1592C16.7921 14.0745 16.855 13.5747 16.8843 13.0484C16.9136 12.5221 16.9573 11.8333 16.9815 11.5177C17.0195 11.0218 17.0054 10.9046 16.8779 10.6546C16.7322 10.3689 16.4418 10.1856 16.3885 10.3456C16.3737 10.3897 16.2347 10.4259 16.0793 10.4259C15.8165 10.4259 15.8009 10.4369 15.8549 10.5853C15.9236 10.7746 15.9204 11.5186 15.8464 12.57L15.7929 13.3319H14.4043C13.0839 13.3319 13.0079 13.3394 12.8547 13.4833L12.6935 13.6347L12.609 13.4492C12.5439 13.3063 12.5433 13.0559 12.6066 12.3587C12.6518 11.8609 12.6885 11.1157 12.6883 10.7027C12.6878 10.0384 12.7044 9.93673 12.8312 9.82191C12.9287 9.73366 12.9515 9.66895 12.9023 9.61976C12.8532 9.57064 12.801 9.58729 12.7392 9.67178C12.6571 9.78405 12.639 9.7703 12.5521 9.52995C12.4566 9.26607 12.458 9.26203 12.7106 9.04747C13.045 8.76346 13.3936 8.23867 13.3956 8.01596C13.3966 7.9185 13.4263 7.72713 13.4618 7.59069C13.4971 7.45424 13.5471 7.15924 13.5728 6.93512C13.6132 6.58101 13.6419 6.52196 13.7915 6.48447C13.9314 6.44931 13.9636 6.39629 13.9636 6.20088C13.9636 6.05635 13.9282 5.96003 13.875 5.95939C13.6973 5.95719 13.622 5.84719 13.5726 5.51746C13.5302 5.23408 13.5403 5.18078 13.6366 5.18078C13.7596 5.18078 13.7841 4.98976 13.7004 4.68462C13.6548 4.51834 13.6466 4.52493 13.5693 4.79094L13.4868 5.07446L13.3769 4.71007C13.3165 4.50962 13.1865 4.22256 13.088 4.07215C12.8373 3.68897 12.7752 3.40879 12.9409 3.40879C13.1493 3.40879 12.3709 2.87273 11.6497 2.51953C11.0957 2.24828 10.4649 2.06427 10.0829 2.0625C10.03 2.06222 9.99434 2.15564 9.99434 2.29477ZM9.00919 4.68746C8.83773 4.76521 8.71653 4.84807 8.73999 4.87146C8.79478 4.92632 9.71082 4.74551 9.71082 4.67987C9.71082 4.63742 9.46367 4.54357 9.35643 4.54541C9.33693 4.5457 9.18065 4.60963 9.00919 4.68746ZM7.05908 4.8872C7.02094 4.94886 7.93834 5.06312 7.99738 5.00415C8.01496 4.9865 7.94316 4.93929 7.83776 4.89924C7.60513 4.81079 7.11096 4.8032 7.05908 4.8872ZM9.02258 5.1783C8.89748 5.25456 8.72935 5.4458 8.64905 5.60329C8.56874 5.76072 8.45363 5.88957 8.39338 5.88957C8.33307 5.88957 8.18216 5.78205 8.05813 5.65064C7.77702 5.35287 7.36747 5.26321 6.99649 5.41823C6.67462 5.55268 6.50806 5.81005 6.46709 6.23625C6.39274 7.01018 7.03994 7.50698 7.74094 7.21403C8.06195 7.07993 8.22951 6.83128 8.27587 6.42018C8.30408 6.16962 8.3398 6.10221 8.44421 6.10221C8.53465 6.10221 8.57675 6.15318 8.57675 6.26283C8.57675 6.72879 9.07511 7.1664 9.60337 7.16427C10.6655 7.15988 11.1402 5.71663 10.2567 5.17794C9.94877 4.99018 9.33084 4.99032 9.02258 5.1783ZM10.1802 5.35713C10.7563 5.73463 10.5933 6.65174 9.90326 6.91527C9.64448 7.01415 9.56148 7.01741 9.32198 6.93852C8.72333 6.74119 8.51771 5.98144 8.93455 5.50668C9.05335 5.37137 9.22083 5.24549 9.30667 5.22699C9.57013 5.17015 9.99037 5.23273 10.1802 5.35713ZM7.85895 5.68374C8.1643 5.96818 8.2232 6.31939 8.03296 6.72043C7.81508 7.17944 7.15568 7.29087 6.81327 6.9264C6.51068 6.60425 6.55782 5.87916 6.89683 5.64171C7.12748 5.48017 7.66566 5.50371 7.85895 5.68374ZM6.14345 6.66755C6.19222 7.29795 6.2979 7.62379 6.59269 8.05218C6.85012 8.42636 6.81412 8.46371 6.50813 8.14L6.29046 7.90964L6.42357 8.15616C6.62324 8.52594 7.24138 9.12176 7.59273 9.28322C8.07825 9.50628 8.73063 9.71707 8.9354 9.71707C9.13613 9.71707 9.35643 9.52499 9.35643 9.34992C9.35643 9.26486 9.22601 9.23275 8.74232 9.19866C8.29188 9.16684 8.02949 9.10701 7.75767 8.97404C6.99132 8.59902 6.43463 7.71536 6.16854 6.4513C6.11453 6.19471 6.11 6.23398 6.14345 6.66755ZM9.03796 7.30639C9.01316 7.34651 9.04158 7.35841 9.10466 7.33424C9.22743 7.28711 9.24989 7.23629 9.14797 7.23629C9.11125 7.23629 9.06178 7.26783 9.03796 7.30639ZM8.3123 7.56892C8.38127 7.58693 8.47695 7.58572 8.52494 7.5663C8.57292 7.54688 8.5165 7.53221 8.39955 7.53363C8.2826 7.53505 8.24333 7.55092 8.3123 7.56892ZM11.3425 10.2876C11.4243 10.485 11.4137 10.5476 11.2357 10.9201C11.0241 11.3627 10.9261 11.4182 10.3549 11.4182C10.1698 11.4182 10.0249 11.4784 9.84989 11.6279C9.69318 11.762 9.52328 11.8387 9.37967 11.8406C9.20141 11.8429 9.09424 11.9133 8.86275 12.1801C8.58639 12.4987 8.57257 12.5359 8.60659 12.8712C8.65153 13.3147 8.77621 14.4245 8.78372 14.4483C8.78684 14.458 8.88508 14.466 9.00203 14.466C9.30142 14.466 9.27548 14.6476 8.96127 14.7513C8.73105 14.8273 8.27012 14.807 7.92232 14.7057C7.80976 14.6728 7.8087 14.656 7.9097 14.5018C7.99759 14.3676 8.00312 14.3026 7.93706 14.1792C7.89085 14.0928 7.87249 13.9107 7.89546 13.7669C7.91807 13.6251 7.96563 13.1755 8.00114 12.7677C8.06351 12.0516 8.07379 12.019 8.30358 11.8084C8.46015 11.6649 8.67931 11.5595 8.9449 11.5001C9.33623 11.4125 9.34905 11.4022 9.37011 11.1576C9.39165 10.9078 9.39718 10.9038 9.94253 10.747C10.3449 10.6312 10.5835 10.5116 10.8285 10.3027C11.013 10.1455 11.1836 10.0284 11.2078 10.0426C11.232 10.0568 11.2926 10.167 11.3425 10.2876ZM5.67069 13.4028C5.80812 13.4916 5.88332 13.4916 5.88332 13.4028C5.88332 13.3638 5.81159 13.3324 5.72385 13.333C5.59492 13.3339 5.58471 13.3472 5.67069 13.4028ZM5.74157 14.1825C5.74157 14.2232 5.53814 14.2512 5.26313 14.2484C4.93014 14.2449 4.82779 14.2249 4.92645 14.1825C5.12555 14.0969 5.74157 14.0969 5.74157 14.1825ZM5.65176 15.0019C6.10178 15.2968 6.22695 15.934 5.91508 16.3428C5.31622 17.128 4.04159 16.7385 4.04074 15.7701C4.04038 15.3955 4.28456 15.0263 4.60997 14.9093C4.90349 14.8038 5.41928 14.8496 5.65176 15.0019ZM8.98707 15.0048C9.31879 15.035 9.49429 15.0803 9.47735 15.1311C9.46282 15.1746 9.3818 15.208 9.29738 15.2052C9.21289 15.2024 8.88975 15.1944 8.57923 15.1875C8.08286 15.1764 8.00496 15.1566 7.93394 15.0239C7.85598 14.8782 7.86398 14.8745 8.16182 14.9154C8.33158 14.9387 8.70292 14.979 8.98707 15.0048ZM14.1266 15.2888C14.5913 15.5223 14.7115 15.8784 14.486 16.3537C14.4224 16.4877 14.3037 16.6441 14.2221 16.7012C14.0287 16.8366 13.5071 16.8343 13.2978 16.6972C13.0695 16.5475 12.8857 16.1069 12.9131 15.7745C12.9543 15.2744 13.5908 15.0196 14.1266 15.2888ZM15.0358 16.8582C14.9611 16.9968 14.6932 17.2504 14.5306 17.3363C14.4722 17.3673 14.5665 17.2444 14.7403 17.0633C15.0834 16.706 15.1385 16.6677 15.0358 16.8582Z" fill="#5F43FF"/>
</svg>
