<svg width="68" height="68" viewBox="0 0 68 68" fill="none" xmlns="http://www.w3.org/2000/svg">
<g filter="url(#filter0_d_755_362)">
<rect x="4" width="60" height="60" rx="30" fill="white"/>
<rect x="4.5" y="0.5" width="59" height="59" rx="29.5" stroke="#F9F9F9"/>
<path d="M33.4997 14.082C42.0143 14.082 48.9163 20.9841 48.9163 29.4987C48.9163 38.0133 42.0143 44.9154 33.4997 44.9154C24.9851 44.9154 18.083 38.0133 18.083 29.4987C18.083 20.9841 24.9851 14.082 33.4997 14.082ZM33.4997 17.1654C30.2287 17.1654 27.0916 18.4648 24.7787 20.7777C22.4657 23.0907 21.1663 26.2277 21.1663 29.4987C21.1663 32.7697 22.4657 35.9067 24.7787 38.2197C27.0916 40.5326 30.2287 41.832 33.4997 41.832C36.7707 41.832 39.9077 40.5326 42.2207 38.2197C44.5336 35.9067 45.833 32.7697 45.833 29.4987C45.833 26.2277 44.5336 23.0907 42.2207 20.7777C39.9077 18.4648 36.7707 17.1654 33.4997 17.1654ZM33.4997 35.6654C33.9086 35.6654 34.3007 35.8278 34.5898 36.1169C34.8789 36.406 35.0413 36.7982 35.0413 37.207C35.0413 37.6159 34.8789 38.008 34.5898 38.2972C34.3007 38.5863 33.9086 38.7487 33.4997 38.7487C33.0908 38.7487 32.6987 38.5863 32.4096 38.2972C32.1204 38.008 31.958 37.6159 31.958 37.207C31.958 36.7982 32.1204 36.406 32.4096 36.1169C32.6987 35.8278 33.0908 35.6654 33.4997 35.6654ZM33.4997 21.0195C34.7982 21.0196 36.0562 21.4718 37.0575 22.2985C38.0588 23.1252 38.7411 24.2748 38.9869 25.5498C39.2328 26.8249 39.027 28.1457 38.4049 29.2855C37.7828 30.4253 36.7832 31.3129 35.5778 31.7958C35.3993 31.8614 35.2384 31.9675 35.1076 32.1057C35.0398 32.1827 35.029 32.2814 35.0306 32.3832L35.0413 32.582C35.0409 32.975 34.8904 33.3529 34.6207 33.6386C34.351 33.9244 33.9823 34.0963 33.59 34.1193C33.1978 34.1424 32.8115 34.0147 32.5102 33.7625C32.2089 33.5103 32.0152 33.1526 31.9688 32.7624L31.958 32.582V32.1966C31.958 30.4191 33.3918 29.3522 34.4308 28.9344C34.8537 28.7656 35.2227 28.4847 35.498 28.122C35.7733 27.7592 35.9446 27.3284 35.9935 26.8756C36.0424 26.4229 35.967 25.9654 35.7755 25.5522C35.584 25.1391 35.2836 24.7859 34.9065 24.5306C34.5294 24.2754 34.0899 24.1276 33.6352 24.1033C33.1805 24.0789 32.7277 24.1789 32.3255 24.3925C31.9234 24.6061 31.5869 24.9252 31.3524 25.3155C31.1179 25.7059 30.9942 26.1527 30.9945 26.6081C30.9945 27.0169 30.832 27.4091 30.5429 27.6982C30.2538 27.9873 29.8617 28.1497 29.4528 28.1497C29.0439 28.1497 28.6518 27.9873 28.3627 27.6982C28.0736 27.4091 27.9111 27.0169 27.9111 26.6081C27.9111 25.1259 28.4999 23.7044 29.548 22.6564C30.596 21.6083 32.0175 21.0195 33.4997 21.0195Z" fill="#3EAFFF"/>
</g>
<defs>
<filter id="filter0_d_755_362" x="0" y="0" width="68" height="68" filterUnits="userSpaceOnUse" color-interpolation-filters="sRGB">
<feFlood flood-opacity="0" result="BackgroundImageFix"/>
<feColorMatrix in="SourceAlpha" type="matrix" values="0 0 0 0 0 0 0 0 0 0 0 0 0 0 0 0 0 0 127 0" result="hardAlpha"/>
<feOffset dy="4"/>
<feGaussianBlur stdDeviation="2"/>
<feComposite in2="hardAlpha" operator="out"/>
<feColorMatrix type="matrix" values="0 0 0 0 0 0 0 0 0 0 0 0 0 0 0 0 0 0 0.25 0"/>
<feBlend mode="normal" in2="BackgroundImageFix" result="effect1_dropShadow_755_362"/>
<feBlend mode="normal" in="SourceGraphic" in2="effect1_dropShadow_755_362" result="shape"/>
</filter>
</defs>
</svg>
