<svg width="40" height="40" viewBox="0 0 40 40" fill="none" xmlns="http://www.w3.org/2000/svg">
<path d="M22.4996 10C24.6017 9.9994 26.67 10.5289 28.5132 11.5396C30.3563 12.5503 31.9149 14.0095 33.0446 15.7822C34.1743 17.5549 34.8387 19.5838 34.9764 21.6814C35.114 23.7789 34.7205 25.8774 33.8321 27.7825L34.9746 33.505C35.0148 33.7066 35.0046 33.9151 34.9449 34.1118C34.8852 34.3086 34.778 34.4876 34.6326 34.6329C34.4872 34.7783 34.3082 34.8856 34.1115 34.9453C33.9147 35.0049 33.7063 35.0151 33.5046 34.975L27.7846 33.8325C26.0888 34.6218 24.2375 35.0205 22.3671 34.9992C20.4967 34.9778 18.655 34.537 16.9776 33.7092C15.3003 32.8813 13.8301 31.6876 12.6754 30.216C11.5208 28.7443 10.7112 27.0324 10.3062 25.2062C9.90126 23.3801 9.9113 21.4863 10.3356 19.6645C10.7599 17.8428 11.5876 16.1395 12.7578 14.6802C13.928 13.2209 15.4107 12.0428 17.0968 11.2328C18.7828 10.4228 20.6291 10.0015 22.4996 10Z" fill="url(#paint0_radial_1011_424)"/>
<path d="M17.4996 5C15.3976 4.9994 13.3293 5.52893 11.4861 6.53961C9.64296 7.55028 8.08444 9.00945 6.95472 10.7822C5.82501 12.5549 5.16059 14.5838 5.02293 16.6814C4.88527 18.7789 5.27881 20.8774 6.16714 22.7825L5.02464 28.505C4.9845 28.7066 4.99472 28.9151 5.05438 29.1118C5.11405 29.3086 5.22132 29.4876 5.3667 29.6329C5.51208 29.7783 5.69108 29.8856 5.88782 29.9453C6.08457 30.0049 6.293 30.0151 6.49464 29.975L12.2146 28.8325C13.9105 29.6218 15.7618 30.0205 17.6322 29.9992C19.5026 29.9778 21.3443 29.537 23.0217 28.7092C24.699 27.8813 26.1692 26.6876 27.3238 25.216C28.4785 23.7443 29.2881 22.0324 29.6931 20.2062C30.098 18.3801 30.088 16.4863 29.6637 14.6645C29.2394 12.8428 28.4116 11.1395 27.2415 9.68019C26.0713 8.22089 24.5886 7.04282 22.9025 6.23281C21.2165 5.4228 19.3702 5.00151 17.4996 5Z" fill="url(#paint1_linear_1011_424)"/>
<path d="M15.9468 23.7539C15.9384 23.5436 15.9726 23.3338 16.0472 23.137C16.1219 22.9403 16.2356 22.7606 16.3814 22.6089C16.5272 22.4571 16.7021 22.3364 16.8957 22.2539C17.0894 22.1714 17.2976 22.1289 17.5081 22.1289C17.7185 22.1289 17.9268 22.1714 18.1204 22.2539C18.3141 22.3364 18.489 22.4571 18.6348 22.6089C18.7806 22.7606 18.8943 22.9403 18.9689 23.137C19.0436 23.3338 19.0778 23.5436 19.0693 23.7539C19.0693 24.1683 18.9047 24.5657 18.6117 24.8587C18.3187 25.1518 17.9212 25.3164 17.5068 25.3164C17.0924 25.3164 16.695 25.1518 16.402 24.8587C16.109 24.5657 15.9443 24.1683 15.9443 23.7539" fill="url(#paint2_linear_1011_424)"/>
<path d="M12.8743 14.885C12.8493 12.0425 14.8868 10 17.5068 10C20.0843 10 22.1418 12.115 22.1418 14.875C22.1418 16.3375 21.6043 17.1425 20.3218 18.17L19.6293 18.705C19.0143 19.1925 18.8093 19.455 18.7668 19.8275L18.7368 20.2175C18.6811 20.5249 18.5124 20.8003 18.2638 20.9895C18.0153 21.1786 17.7049 21.2679 17.3938 21.2397C17.0827 21.2115 16.7935 21.0678 16.583 20.837C16.3726 20.6061 16.2562 20.3049 16.2568 19.9925C16.2568 18.565 16.7818 17.7825 18.0468 16.77L18.7418 16.2325C19.4643 15.66 19.6418 15.3775 19.6418 14.8725C19.6418 13.48 18.6893 12.5 17.5068 12.5C16.2743 12.5 15.3593 13.415 15.3743 14.8625C15.3759 15.0267 15.3452 15.1895 15.2839 15.3418C15.2226 15.4941 15.1319 15.6328 15.017 15.75C14.7849 15.9868 14.4683 16.1217 14.1368 16.125C13.8052 16.1283 13.486 15.9998 13.2492 15.7677C13.0124 15.5356 12.8776 15.2165 12.8743 14.885Z" fill="url(#paint3_linear_1011_424)"/>
<defs>
<radialGradient id="paint0_radial_1011_424" cx="0" cy="0" r="1" gradientUnits="userSpaceOnUse" gradientTransform="translate(16.7096 16.675) rotate(49.2378) scale(17.6202 17.6353)">
<stop offset="0.63" stop-color="#3D35B1"/>
<stop offset="0.85" stop-color="#6553C9"/>
<stop offset="1" stop-color="#7660D3"/>
</radialGradient>
<linearGradient id="paint1_linear_1011_424" x1="4.99964" y1="5" x2="29.9996" y2="30" gradientUnits="userSpaceOnUse">
<stop stop-color="#0FAFFF"/>
<stop offset="1" stop-color="#2764E7"/>
</linearGradient>
<linearGradient id="paint2_linear_1011_424" x1="13.6843" y1="10.2714" x2="17.7293" y2="26.0439" gradientUnits="userSpaceOnUse">
<stop stop-color="#FDFDFD"/>
<stop offset="1" stop-color="#CCEAFF"/>
</linearGradient>
<linearGradient id="paint3_linear_1011_424" x1="13.6843" y1="10.27" x2="17.7293" y2="26.0425" gradientUnits="userSpaceOnUse">
<stop stop-color="#FDFDFD"/>
<stop offset="1" stop-color="#CCEAFF"/>
</linearGradient>
</defs>
</svg>
