<svg width="31" height="30" viewBox="0 0 31 30" fill="none" xmlns="http://www.w3.org/2000/svg">
<rect x="0.5" width="30" height="30" rx="15" fill="#D8D8D8"/>
<path d="M20.9997 15.9154H16.4163V20.4987C16.4163 20.7418 16.3198 20.975 16.1479 21.1469C15.9759 21.3188 15.7428 21.4154 15.4997 21.4154C15.2566 21.4154 15.0234 21.3188 14.8515 21.1469C14.6796 20.975 14.583 20.7418 14.583 20.4987V15.9154H9.99967C9.75656 15.9154 9.5234 15.8188 9.35149 15.6469C9.17959 15.475 9.08301 15.2418 9.08301 14.9987C9.08301 14.7556 9.17959 14.5224 9.35149 14.3505C9.5234 14.1786 9.75656 14.082 9.99967 14.082H14.583V9.4987C14.583 9.25558 14.6796 9.02242 14.8515 8.85052C15.0234 8.67861 15.2566 8.58203 15.4997 8.58203C15.7428 8.58203 15.9759 8.67861 16.1479 8.85052C16.3198 9.02242 16.4163 9.25558 16.4163 9.4987V14.082H20.9997C21.2428 14.082 21.4759 14.1786 21.6479 14.3505C21.8198 14.5224 21.9163 14.7556 21.9163 14.9987C21.9163 15.2418 21.8198 15.475 21.6479 15.6469C21.4759 15.8188 21.2428 15.9154 20.9997 15.9154Z" fill="white"/>
</svg>
