<svg width="20" height="20" viewBox="0 0 20 20" fill="none" xmlns="http://www.w3.org/2000/svg">
<path d="M5.83301 8.33333V6.78167C5.83301 4.41667 7.69884 2.5 9.99967 2.5C12.3005 2.5 14.1663 4.41667 14.1663 6.78167V8.33333M3.33301 10C3.33301 9.55797 3.5086 9.13405 3.82116 8.82149C4.13372 8.50893 4.55765 8.33333 4.99967 8.33333H14.9997C15.4417 8.33333 15.8656 8.50893 16.1782 8.82149C16.4907 9.13405 16.6663 9.55797 16.6663 10V15.8333C16.6663 16.2754 16.4907 16.6993 16.1782 17.0118C15.8656 17.3244 15.4417 17.5 14.9997 17.5H4.99967C4.55765 17.5 4.13372 17.3244 3.82116 17.0118C3.5086 16.6993 3.33301 16.2754 3.33301 15.8333V10Z" stroke="#999999" stroke-width="1.33333" stroke-linecap="round" stroke-linejoin="round"/>
<path d="M8.73744 14.647C9.01827 14.8886 9.32077 14.9995 9.99994 14.9995H10.3441C10.6133 14.9995 10.8716 14.8886 11.0624 14.6928C11.2536 14.4947 11.36 14.2298 11.3591 13.9545C11.3591 13.6778 11.2524 13.4128 11.0624 13.2161C10.9694 13.1194 10.8579 13.0425 10.7345 12.9898C10.611 12.9371 10.4783 12.9098 10.3441 12.9095H9.65577C9.52179 12.9092 9.38923 12.8819 9.26598 12.8294C9.14272 12.7769 9.03128 12.7001 8.93827 12.6036C8.74711 12.4055 8.64069 12.1406 8.64161 11.8653C8.64161 11.5886 8.74827 11.3228 8.93827 11.127C9.03121 11.0304 9.14262 10.9535 9.26588 10.9008C9.38914 10.8481 9.52173 10.8207 9.65577 10.8203H9.99994C10.6799 10.8203 10.9816 10.9311 11.2624 11.1728" stroke="#999999" stroke-width="1.33333" stroke-linecap="round" stroke-linejoin="round"/>
</svg>
