<svg width="23" height="23" viewBox="0 0 23 23" fill="none" xmlns="http://www.w3.org/2000/svg">
<path d="M18.3333 17.25H4.91667V6.70833H18.3333M15.4583 0V1.91667H7.79167V0H5.875V1.91667H4.91667C3.85292 1.91667 3 2.76958 3 3.83333V17.25C3 17.7583 3.20193 18.2458 3.56138 18.6053C3.92082 18.9647 4.40833 19.1667 4.91667 19.1667H18.3333C18.8417 19.1667 19.3292 18.9647 19.6886 18.6053C20.0481 18.2458 20.25 17.7583 20.25 17.25V3.83333C20.25 3.325 20.0481 2.83749 19.6886 2.47805C19.3292 2.1186 18.8417 1.91667 18.3333 1.91667H17.375V0M16.4167 10.5417H11.625V15.3333H16.4167V10.5417Z" fill="#B3B3B3"/>
</svg>
