<svg width="20" height="20" viewBox="0 0 20 20" fill="none" xmlns="http://www.w3.org/2000/svg">
<path fill-rule="evenodd" clip-rule="evenodd" d="M10.1982 3.24186C8.64051 3.67035 7.14879 4.35994 5.80502 5.27274C4.85139 5.92053 3.54063 7.19277 3.00591 7.98975C0.716676 11.4011 2.47332 14.4527 6.87002 14.7024C7.35815 14.7301 8.04908 14.7162 8.40532 14.6714C8.76166 14.6266 9.07273 14.6217 9.0966 14.6604C9.12056 14.6991 8.99117 15.4314 8.80923 16.2877C8.57599 17.3848 8.50605 17.8724 8.57235 17.9387C8.63865 18.005 8.93854 17.9641 9.58766 17.8001C13.6658 16.7699 17.1521 13.9445 17.8887 11.0726C18.0922 10.2793 18.0114 9.29128 17.6893 8.63009C16.9701 7.15443 15.1531 6.29532 12.7321 6.28618C12.1436 6.28396 11.4925 6.31077 11.2852 6.34582C10.815 6.42526 10.818 6.50451 11.2186 4.63232C11.3894 3.83427 11.5068 3.14539 11.4796 3.10137C11.4016 2.97516 11.013 3.01776 10.1982 3.24186Z" fill="#5F43FF"/>
</svg>
