<svg width="68" height="68" viewBox="0 0 68 68" fill="none" xmlns="http://www.w3.org/2000/svg">
<g filter="url(#filter0_d_755_370)">
<rect x="4" width="60" height="60" rx="30" fill="white"/>
<rect x="4.5" y="0.5" width="59" height="59" rx="29.5" stroke="#F9F9F9"/>
<path d="M38.8955 31.8114C38.8955 34.8948 35.0413 37.2073 35.0413 39.5198H31.958C31.958 37.2073 28.1038 34.8948 28.1038 31.8114C28.1038 28.836 30.5243 26.4156 33.4997 26.4156C36.4751 26.4156 38.8955 28.836 38.8955 31.8114ZM35.0413 41.0614H31.958V41.8323C31.958 42.6802 32.6518 43.3739 33.4997 43.3739C34.3476 43.3739 35.0413 42.6802 35.0413 41.8323V41.0614ZM44.2913 31.0406C44.2913 33.1835 43.6593 35.1877 42.5647 36.8681C42.3786 37.164 42.2986 37.5144 42.3378 37.8617C42.377 38.2091 42.5331 38.5328 42.7805 38.7798C43.4588 39.4581 44.6305 39.3656 45.1547 38.5485C46.6081 36.3146 47.3795 33.7057 47.3747 31.0406C47.3747 27.4023 45.9718 24.0877 43.6747 21.6056C43.0734 20.9581 42.0559 20.9427 41.4393 21.5594C40.8534 22.1452 40.8534 23.0856 41.4084 23.7023C43.2645 25.6947 44.2949 28.3176 44.2913 31.0406ZM39.1268 18.1677L34.8255 13.8664C34.7183 13.7563 34.5806 13.6806 34.4302 13.6492C34.2797 13.6177 34.1233 13.6318 33.9809 13.6898C33.8385 13.7477 33.7167 13.8468 33.6309 13.9744C33.5452 14.102 33.4995 14.2523 33.4997 14.406V17.1656C31.0061 17.1662 28.5589 17.8387 26.4152 19.1125C24.2716 20.3862 22.5108 22.2141 21.3181 24.4039C20.1254 26.5937 19.5449 29.0644 19.6375 31.5562C19.7302 34.048 20.4926 36.4688 21.8447 38.5639C22.3688 39.381 23.5405 39.4735 24.2188 38.7952C24.7276 38.2864 24.8201 37.5002 24.4347 36.8989C22.2918 33.5844 21.9063 29.0364 24.6351 24.5656C26.4851 21.5594 29.9693 19.956 33.4997 20.2489V23.0085C33.4997 23.7023 34.3322 24.0414 34.8101 23.5481L39.1113 19.2469C39.4197 18.9539 39.4197 18.4606 39.1268 18.1677Z" fill="#4EFF3E"/>
</g>
<defs>
<filter id="filter0_d_755_370" x="0" y="0" width="68" height="68" filterUnits="userSpaceOnUse" color-interpolation-filters="sRGB">
<feFlood flood-opacity="0" result="BackgroundImageFix"/>
<feColorMatrix in="SourceAlpha" type="matrix" values="0 0 0 0 0 0 0 0 0 0 0 0 0 0 0 0 0 0 127 0" result="hardAlpha"/>
<feOffset dy="4"/>
<feGaussianBlur stdDeviation="2"/>
<feComposite in2="hardAlpha" operator="out"/>
<feColorMatrix type="matrix" values="0 0 0 0 0 0 0 0 0 0 0 0 0 0 0 0 0 0 0.25 0"/>
<feBlend mode="normal" in2="BackgroundImageFix" result="effect1_dropShadow_755_370"/>
<feBlend mode="normal" in="SourceGraphic" in2="effect1_dropShadow_755_370" result="shape"/>
</filter>
</defs>
</svg>
