<svg width="12" height="15" viewBox="0 0 12 15" fill="none" xmlns="http://www.w3.org/2000/svg">
<path d="M6.14691 0.243989C5.99063 0.0877627 5.77871 0 5.55774 0C5.33677 0 5.12485 0.0877627 4.96857 0.243989L0.254407 4.95816C0.174815 5.03503 0.11133 5.12698 0.0676557 5.22865C0.0239815 5.33032 0.000992977 5.43967 3.14636e-05 5.55032C-0.00093005 5.66097 0.0201549 5.7707 0.0620557 5.87312C0.103956 5.97553 0.165834 6.06857 0.244078 6.14682C0.322322 6.22506 0.415365 6.28694 0.517778 6.32884C0.620192 6.37074 0.729925 6.39183 0.840575 6.39086C0.951224 6.3899 1.06057 6.36691 1.16224 6.32324C1.26391 6.27957 1.35587 6.21608 1.43274 6.13649L4.72441 2.84482V13.8807C4.72441 14.1017 4.8122 14.3136 4.96848 14.4699C5.12476 14.6262 5.33673 14.714 5.55774 14.714C5.77875 14.714 5.99071 14.6262 6.147 14.4699C6.30328 14.3136 6.39107 14.1017 6.39107 13.8807V2.84482L9.68274 6.13649C9.83991 6.28829 10.0504 6.37228 10.2689 6.37038C10.4874 6.36848 10.6964 6.28084 10.8509 6.12634C11.0054 5.97183 11.0931 5.76282 11.095 5.54432C11.0969 5.32582 11.0129 5.11532 10.8611 4.95816L6.14691 0.243989Z" fill="white"/>
</svg>
