<svg width="35" height="35" viewBox="0 0 35 35" fill="none" xmlns="http://www.w3.org/2000/svg">
<path d="M26.7969 0H8.20312C3.67266 0 0 3.67266 0 8.20312V26.7969C0 31.3273 3.67266 35 8.20312 35H26.7969C31.3273 35 35 31.3273 35 26.7969V8.20312C35 3.67266 31.3273 0 26.7969 0Z" fill="#242938"/>
<path d="M17.4998 20.0895C18.9086 20.0895 20.0505 18.9475 20.0505 17.5389C20.0505 16.1303 18.9086 14.9883 17.4998 14.9883C16.0911 14.9883 14.9492 16.1303 14.9492 17.5389C14.9492 18.9475 16.0912 20.0895 17.4998 20.0895Z" fill="#00D8FF"/>
<path d="M17.5003 12.3555C20.9248 12.3555 24.1061 12.8468 26.5048 13.6728C29.3949 14.6677 31.1719 16.1758 31.1719 17.5415C31.1719 18.9646 29.2887 20.5668 26.1851 21.5951C23.8387 22.3724 20.751 22.7782 17.5003 22.7782C14.1673 22.7782 11.0112 22.3973 8.6383 21.5864C5.63623 20.5604 3.82812 18.9375 3.82812 17.5415C3.82812 16.1869 5.5248 14.6904 8.3743 13.697C10.7819 12.8575 14.0417 12.3555 17.4997 12.3555H17.5003Z" stroke="#00D8FF" stroke-width="0.870215"/>
<path d="M12.986 14.9622C14.6969 11.9957 16.7117 9.48527 18.6255 7.82004C20.9311 5.81342 23.1255 5.02756 24.3084 5.70965C25.5411 6.42058 25.9884 8.85254 25.3287 12.0548C24.8303 14.4756 23.639 17.353 22.0149 20.1692C20.3498 23.0564 18.4433 25.6002 16.5556 27.2501C14.167 29.3381 11.8577 30.0937 10.6484 29.3963C9.47492 28.7201 9.02621 26.5024 9.58922 23.5376C10.0649 21.0325 11.2586 17.9579 12.9854 14.9622H12.986Z" stroke="#00D8FF" stroke-width="0.870215"/>
<path d="M12.99 20.1763C11.2743 17.2131 10.1061 14.2132 9.61861 11.7236C9.03167 8.72381 9.44661 6.43035 10.6285 5.74621C11.8602 5.03309 14.1903 5.86024 16.6352 8.03106C18.4836 9.67223 20.3817 12.141 22.0104 14.9544C23.6803 17.8389 24.9318 20.7612 25.4186 23.2205C26.0347 26.3328 25.5361 28.7107 24.3279 29.41C23.1557 30.0887 21.0104 29.3703 18.723 27.4018C16.7903 25.7387 14.7226 23.1691 12.99 20.1763Z" stroke="#00D8FF" stroke-width="0.870215"/>
</svg>
